<svg width="1200" height="850" viewBox="0 0 1200 850" fill="none" xmlns="http://www.w3.org/2000/svg">
<g id="Folder 1" clip-path="url(#clip0_72_122)">
<path id="_falderobject" d="M129.65 2H355.65C361.162 2.0002 365.65 6.49197 365.65 12.0244V48.3076C365.651 49.4118 366.545 50.3073 367.649 50.3076C634.637 50.3377 922.389 50.538 1160 50.3877C1180.98 50.3877 1198 67.4341 1198 88.4678V809.919C1198 830.953 1180.98 848 1160 848H40C19.0184 848 2 830.953 2 809.919V88.4678C2.00011 67.4341 19.0184 50.3877 40 50.3877H40.002C65.3217 50.3677 91.2311 50.3469 117.65 50.3369C118.755 50.3365 119.65 49.4412 119.65 48.3369V12.0244C119.65 6.49076 124.13 2 129.65 2Z" fill="#D4C8B8" stroke="#2B2825" stroke-width="4" stroke-miterlimit="10" stroke-linecap="round" stroke-linejoin="round"/>
</g>
<defs>
<clipPath id="clip0_72_122">
<rect width="1200" height="850" fill="white"/>
</clipPath>
</defs>
</svg>
