<svg width="402" height="100" viewBox="0 0 402 100" fill="none" xmlns="http://www.w3.org/2000/svg">
<path d="M401.601 11.7V95.1C401.601 96.8 400.201 98.2 398.501 98.2H384.601C382.901 98.2 381.501 96.8 381.501 95.1C381.501 92.4 378.401 91.1 376.401 92.7C370.701 97.4 363.401 99.7 354.401 99.7C343.801 99.7 335.501 96.4 329.601 89.7C323.701 83 320.801 73.4 320.801 61V11.6C320.801 9.90001 322.201 8.5 323.901 8.5H338.401C340.101 8.5 341.501 9.90001 341.501 11.6V33.9C341.501 41.1 343.201 46.5 346.501 50.2C349.901 53.8 354.501 55.6 360.301 55.6C366.501 55.6 371.501 53.7 375.301 49.8C379.101 45.9 380.901 40.1 380.901 32.5V11.6C380.901 9.90001 382.301 8.5 384.001 8.5H398.501C400.201 8.6 401.601 10 401.601 11.7Z" fill="#2B2825"/>
<path d="M293.5 96.6002L281.7 79.6002C279 75.6002 274.4 73.3002 269.6 73.3002C263.3 73.3002 258.2 78.4002 258.2 84.7002V94.4002C258.2 96.5002 256.5 98.2002 254.4 98.2002H241.3C239.2 98.2002 237.5 96.5002 237.5 94.4002V12.5002C237.5 10.4002 239.2 8.7002 241.3 8.7002H276.2C284.1 8.7002 291 10.0002 296.8 12.7002C302.7 15.3002 307.2 19.1002 310.4 24.0002C313.6 28.9002 315.1 34.6002 315.1 41.3002C315.1 48.0002 313.5 53.7002 310.2 58.6002C307.8 62.3002 304.5 65.3002 300.4 67.7002C298.4 68.8002 297.8 71.4002 299.1 73.2002L312.5 92.3002C314.3 94.8002 312.5 98.3002 309.4 98.3002H296.5C295.4 98.2002 294.2 97.6002 293.5 96.6002ZM294.3 41.1002C294.3 36.1002 292.7 32.2002 289.4 29.6002C286.2 26.9002 281.4 25.5002 275.2 25.5002C265.9 25.5002 258.3 33.1002 258.3 42.4002C258.3 50.3002 264.7 56.7002 272.6 56.7002H275.2C281.4 56.7002 286.2 55.3002 289.4 52.6002C292.7 49.9002 294.3 46.1002 294.3 41.1002Z" fill="#2B2825"/>
<path d="M186.401 7.09961C194.701 7.09961 201.901 8.6996 208.001 11.9996C214.101 15.1996 218.901 19.9996 222.301 26.2996C225.701 32.5996 227.401 40.2996 227.401 49.1996V91.9996C227.401 95.3996 224.601 98.1996 221.201 98.1996H210.001C208.201 98.1996 206.701 96.6996 206.701 94.8996C206.701 84.8996 198.601 76.6996 188.501 76.6996H184.401C174.101 76.6996 165.801 84.9996 165.801 95.2996C165.801 96.8996 164.501 98.1996 162.901 98.1996H151.701C148.201 98.1996 145.301 95.2996 145.301 91.7996V49.1996C145.301 40.1996 147.001 32.5996 150.401 26.2996C153.801 19.9996 158.601 15.1996 164.701 11.9996C170.901 8.6996 178.101 7.09961 186.401 7.09961ZM203.901 60.0996C205.501 60.0996 206.801 58.7996 206.801 57.1996V47.2996C206.801 39.8996 205.001 34.2996 201.301 30.4996C197.601 26.6996 192.601 24.6996 186.301 24.6996C179.901 24.6996 174.901 26.5996 171.201 30.4996C167.601 34.2996 165.801 39.7996 165.801 47.2996V48.8996C165.801 55.0996 170.801 60.0996 177.001 60.0996H203.901Z" fill="#2B2825"/>
<path d="M102.2 7.09961C112.8 7.09961 121 10.1996 126.9 16.3996C132.8 22.4996 135.7 31.4996 135.7 43.1996V95.1996C135.7 96.8996 134.3 98.2996 132.6 98.2996C122.9 98.2996 115 90.3996 115 80.6996V58.5996C115 52.2996 113.3 47.4996 110 44.3996C106.8 41.1996 102.4 39.4996 97.1 39.4996C91.2 39.4996 86.5 41.1996 83 44.5996C79.5 47.8996 77.8 52.9996 77.8 59.7996V86.7996C77.8 93.0996 72.7 98.2996 66.3 98.2996C61.2 98.2996 57 94.1996 57 88.9996V60.2996C57 53.9996 55.5 49.1996 52.4 46.0996C49.3 42.8996 45.1 41.1996 39.9 41.1996C34.1 41.1996 29.4 42.8996 25.9 46.2996C22.4 49.5996 20.7 54.6996 20.7 61.4996V90.3996C20.7 94.6996 17.2 98.1996 12.9 98.1996H8.5C3.8 98.1996 0 94.3996 0 89.6996V21.5996C0 14.3996 5.8 8.69962 12.9 8.69962H17C18.7 8.69962 20.1 10.0996 20.1 11.7996C20.1 14.3996 23.1 15.8996 25.1 14.1996C26.9 12.7996 28.8 11.4996 31 10.4996C35.5 8.2996 40.7 7.19962 46.6 7.19962C52.7 7.19962 58.1 8.39962 62.7 10.6996C63.1 10.8996 63.5 11.0996 63.8 11.2996C69.9 14.5996 77.3 14.8996 83.5 11.5996C84.1 11.2996 84.7 10.9996 85.4 10.6996C90.3 8.29962 96 7.09961 102.2 7.09961Z" fill="#2B2825"/>
<path d="M203.801 65.2002C210.704 65.2002 216.301 59.6038 216.301 52.7002C216.301 45.7966 210.704 40.2002 203.801 40.2002C196.897 40.2002 191.301 45.7966 191.301 52.7002C191.301 59.6038 196.897 65.2002 203.801 65.2002Z" fill="#2B2825"/>
<path d="M203.301 60.2002C207.719 60.2002 211.301 56.6185 211.301 52.2002C211.301 47.7819 207.719 44.2002 203.301 44.2002C198.882 44.2002 195.301 47.7819 195.301 52.2002C195.301 56.6185 198.882 60.2002 203.301 60.2002Z" fill="#F4F4F4"/>
<path d="M203.799 47.2002C205.299 47.2002 206.599 48.0002 207.499 48.6002C207.999 48.9002 208.299 49.3002 208.599 49.5002C208.699 49.6002 208.799 49.7002 208.899 49.8002L208.999 49.9002C209.399 50.3002 209.299 50.9002 208.899 51.3002C208.499 51.6002 207.899 51.6002 207.599 51.3002L207.499 51.2002C207.499 51.2002 207.499 51.2002 207.399 51.1002C207.299 51.0002 207.299 51.0002 207.199 50.9002C206.999 50.7002 206.699 50.4002 206.299 50.2002C205.499 49.6002 204.599 49.2002 203.699 49.2002C202.799 49.2002 201.899 49.7002 201.199 50.4002C200.799 50.7002 200.599 51.1002 200.399 51.3002C200.299 51.4002 200.199 51.5002 200.199 51.6002C200.199 51.6002 200.199 51.7002 200.099 51.7002C199.799 52.2002 199.199 52.3002 198.699 52.0002C198.199 51.7002 198.099 51.1002 198.399 50.6002L199.099 51.1002C198.399 50.7002 198.399 50.6002 198.399 50.6002C198.399 50.6002 198.399 50.5002 198.499 50.5002C198.599 50.4002 198.699 50.3002 198.799 50.1002C198.999 49.8002 199.399 49.4002 199.799 48.9002C200.799 48.2002 202.099 47.2002 203.799 47.2002Z" fill="#3C3834"/>
<path d="M250.102 25C257.005 25 262.602 19.4036 262.602 12.5C262.602 5.59644 257.005 0 250.102 0C243.198 0 237.602 5.59644 237.602 12.5C237.602 19.4036 243.198 25 250.102 25Z" fill="#2B2825"/>
<path d="M248.602 18C253.02 18 256.602 14.4183 256.602 10C256.602 5.58172 253.02 2 248.602 2C244.183 2 240.602 5.58172 240.602 10C240.602 14.4183 244.183 18 248.602 18Z" fill="#F4F4F4"/>
<path d="M247.102 11C249.587 11 251.602 8.98528 251.602 6.5C251.602 4.01472 249.587 2 247.102 2C244.616 2 242.602 4.01472 242.602 6.5C242.602 8.98528 244.616 11 247.102 11Z" fill="#3C3834"/>
<path d="M273.102 25C280.005 25 285.602 19.4036 285.602 12.5C285.602 5.59644 280.005 0 273.102 0C266.198 0 260.602 5.59644 260.602 12.5C260.602 19.4036 266.198 25 273.102 25Z" fill="#2B2825"/>
<path d="M271.602 18C276.02 18 279.602 14.4183 279.602 10C279.602 5.58172 276.02 2 271.602 2C267.183 2 263.602 5.58172 263.602 10C263.602 14.4183 267.183 18 271.602 18Z" fill="#F4F4F4"/>
<path d="M270.102 11C272.587 11 274.602 8.98528 274.602 6.5C274.602 4.01472 272.587 2 270.102 2C267.616 2 265.602 4.01472 265.602 6.5C265.602 8.98528 267.616 11 270.102 11Z" fill="#3C3834"/>
</svg>
