<svg width="296" height="297" viewBox="0 0 296 297" fill="none" xmlns="http://www.w3.org/2000/svg">
<path d="M148 0C66.3 0 0 66.5 0 148.5C0 230.5 66.3 297 148 297C229.7 297 296 230.5 296 148.5C296 66.5 229.7 0 148 0ZM230.8 159.9C227 165.7 222.3 170.7 216.8 175.1C208.2 181.8 206.3 194.6 212.5 203.6L222.8 218.3C232.5 232.2 222.6 251.2 205.7 251.2C198.8 251.2 192.4 247.8 188.5 242.2L161.4 203C157.5 197.4 151.1 194 144.2 194H132.4C120.9 194 111.5 203.4 111.5 214.9V230.3C111.5 241.8 102.1 251.2 90.6 251.2H84.8C73.3 251.2 63.9 241.8 63.9 230.3V66.7C63.9 55.2 73.3 45.8 84.8 45.8H152.8C171 45.8 186.7 48.8 200 54.9C213.5 61 223.9 69.6 231.1 80.7C238.3 91.8 242 105 242 120.3C242 135.6 238.2 148.8 230.8 159.9Z" fill="#2B2825"/>
<path d="M215.5 64.6002C212.1 40.3002 189.1 24.3002 165.5 29.0002C139 34.3002 98.4001 40.1002 88.9001 42.0002C65.3001 46.8002 50.9001 72.8002 57.2001 96.4002C62.6001 116.6 82.4001 129.9 103.1 127.2C121.7 124.8 135.5 110.9 139 94.0002C148.8 108.2 166.9 115.7 185 110.7C205.1 105.3 218.3 85.3002 215.5 64.6002ZM125.6 109.6C126.8 106.8 127.2 103.7 126.6 100.5C124.9 92.2002 116.7 86.8002 108.3 88.7002C100.8 90.4002 95.7001 97.7002 96.7001 105.3C97.7001 113.4 104.8 119 112.6 118.5C110.2 119.3 107.8 119.7 105 119.8C95.9001 120.2 87.1001 115.9 82.2001 108.2C70.7001 90.1002 82.0001 68.5002 101.3 66.1002C114.5 64.5002 127.1 73.0002 130.5 85.8002C132.8 94.5002 130.7 103.2 125.6 109.6ZM201.5 94.3002C202.9 91.1002 203.3 87.3002 202.1 83.6002C200 76.9002 193.4 72.4002 186.4 73.0002C177.2 73.8002 171 82.3002 172.8 91.1002C174.3 98.6002 181.1 103.6 188.5 103.2C187.6 103.5 186.6 103.7 185.7 103.9C171.1 106.8 156.9 97.4002 154 82.8002C151 67.7002 161.1 53.1002 176.6 50.8002C189.9 48.9002 202.9 57.4002 206.4 70.4002C208.7 79.2002 206.6 87.9002 201.5 94.3002Z" fill="#2B2825"/>
<path d="M159.763 169.85C173.294 167.103 182.215 154.786 179.688 142.337C177.161 129.889 164.144 122.023 150.613 124.77C137.082 127.516 128.161 139.834 130.688 152.282C133.215 164.731 146.232 172.596 159.763 169.85Z" fill="#2B2825"/>
</svg>
